<?xml version="1.0" standalone="no"?>
<!DOCTYPE svg PUBLIC "-//W3C//DTD SVG 20010904//EN"
 "http://www.w3.org/TR/2001/REC-SVG-20010904/DTD/svg10.dtd">
<svg version="1.0" xmlns="http://www.w3.org/2000/svg"
 width="453.000000pt" height="453.000000pt" viewBox="0 0 453.000000 453.000000"
 preserveAspectRatio="xMidYMid meet">

<g transform="translate(0.000000,453.000000) scale(0.100000,-0.100000)"
fill="#000000" stroke="none">
<path d="M560 2930 l0 -110 538 -1 c295 0 554 -3 575 -7 36 -7 41 -13 202
-274 l164 -268 -181 -275 -180 -275 -559 0 -559 0 0 -110 0 -110 500 -2 c275
-2 559 -3 631 -3 l131 0 181 297 c100 164 184 298 187 297 3 0 84 -135 180
-299 l175 -299 755 2 755 2 0 100 0 100 -122 3 -123 3 0 564 0 564 123 3 122
3 0 100 0 100 -750 3 -751 2 -171 -284 c-94 -157 -174 -290 -177 -298 -4 -8
-8 -9 -11 -3 -3 6 -79 138 -168 295 l-163 285 -652 3 -652 2 0 -110z m2230
-666 l0 -565 -42 3 -42 3 -178 283 -179 283 177 280 176 279 44 0 44 0 0 -566z
m775 1 l0 -560 -267 -3 -268 -2 0 565 0 565 268 -2 267 -3 0 -560z"/>
</g>
</svg>
